<svg
        xmlns="http://www.w3.org/2000/svg"
        viewBox="0 0 64 64"
        width="40"
        height="40"
        fill="white"
>
    <path
            d="M8.6 45.3a1 1 0 0 0-1.432 0l-3.227 3.31a1 1 0 0 0 0 1.4 38.817 38.817 0 0 0 55.774 0 1 1 0 0 0 0-1.4l-3.08-3.12a1 1 0 0 0-.861-.49h-.041a1 1 0 0 0-.862.493 33 33 0 0 1-4.117 3.518l-3.7-12.023A.993.993 0 0 0 48 36v-5a1 1 0 0 0-1-1H34.85l-.613-4.908 7.114-.684a1 1 0 0 0 .9-1.091l-.436-4.54a.987.987 0 0 0-1.091-.9l-19.44 1.868a30.062 30.062 0 0 0-9.266-15.556l-.993-.889a1 1 0 0 0-1.409.076L6.149 7.222a1 1 0 0 0 .061 1.4 28.057 28.057 0 0 1 8.431 15.093L16 31.5V36a1 1 0 0 0 .988 1L13.22 49.238A33.087 33.087 0 0 1 8.6 45.3zm47.147 2.135l1.842 1.865a36.8 36.8 0 0 1-51.527 0l1.831-1.878a34.53 34.53 0 0 0 8.73 6.163l.194.111a.956.956 0 0 0 .182.075 34.194 34.194 0 0 0 14.8 3.356h.036a34.131 34.131 0 0 0 15.262-3.575l.03-.012.03-.017a34.443 34.443 0 0 0 3.421-1.957l.127-.073a1.057 1.057 0 0 0 .1-.085 35.232 35.232 0 0 0 4.941-3.971zM47.192 51.2L42.528 37h2.441l4.043 13.154zM46 32v3H18v-3.584a.991.991 0 0 0-.015-.172L16.947 25.3a3.276 3.276 0 0 0 2.522 1.2 3.049 3.049 0 0 0 .315-.016l1.01-.1 1.134 4.844A1 1 0 0 0 22.9 32h10.185l.227 1.82 1.985-.248L35.1 32zm-13.165-2H23.7l-.9-3.809 9.442-.907zm7.329-7.486l-20.571 1.977a1.281 1.281 0 0 1-.245-2.551l20.57-1.976zM8.283 7.843l2.152-2.385.251.224a28.065 28.065 0 0 1 8.58 14.258l-.11.01a3.287 3.287 0 0 0-2.815 2.283 30.009 30.009 0 0 0-8.058-14.39zM19.079 37h2.437l-4.768 14.354-1.775-1.013zm4.545 0h16.8L45.4 52.151a32.2 32.2 0 0 1-13.57 2.976h-.03a32.239 32.239 0 0 1-13.248-2.845z"
    />
</svg>
