<svg viewBox="0 0 23 24" width="40" height="40" xmlns="http://www.w3.org/2000/svg"><g fill="#FFF" fill-rule="nonzero"><path d="M14.841 3.37A4.522 4.522 0 0 0 12.7.606 4.628 4.628 0 0 0 10.411 0C8.765 0 7.233.87 6.415 2.268L3.516 7.227v.001l-.001.002-2.9 4.958c-1.268 2.17-.512 4.954 1.685 6.207A4.627 4.627 0 0 0 4.588 19a4.634 4.634 0 0 0 3.793-1.955l6.003-10.233a4.453 4.453 0 0 0 .457-3.442zM7.6 16.574a3.714 3.714 0 0 1-3.011 1.521 3.701 3.701 0 0 1-1.83-.484c-1.76-1.003-2.365-3.233-1.35-4.97L4.08 8.072l.991.566 5.383 3.069-2.855 4.867zM13.59 6.359l-2.678 4.565L5.926 8.08l1.282-2.192a.45.45 0 0 0-.168-.618.461.461 0 0 0-.625.165L5.133 7.628l-.595-.339 2.67-4.568A3.712 3.712 0 0 1 10.412.905c.642 0 1.275.167 1.83.484a3.621 3.621 0 0 1 1.715 2.215c.255.941.125 1.92-.365 2.755zM21.047 16.48C19.957 16.17 18.52 16 17 16c-1.52 0-2.957.17-4.046.48-1.295.37-1.952.888-1.954 1.542V21.975c0 .657.656 1.177 1.95 1.545 1.088.31 2.526.48 4.05.48s2.962-.17 4.05-.48c1.294-.368 1.95-.888 1.95-1.545v-3.948-.002c0-.656-.657-1.175-1.953-1.544zm-7.848.856c1.012-.288 2.362-.447 3.801-.447 1.44 0 2.79.159 3.801.447 1.076.306 1.305.635 1.306.688v.001c-.001.055-.23.383-1.306.689-1.012.288-2.362.447-3.801.447s-2.789-.16-3.801-.447c-1.08-.307-1.306-.637-1.306-.69 0-.051.227-.381 1.306-.688zm8.908 4.64c0 .063-.231.385-1.303.69-1.01.287-2.36.445-3.804.445-1.443 0-2.794-.158-3.804-.446-1.072-.304-1.303-.626-1.303-.69v-2.814c.285.152.639.288 1.06.408 1.09.31 2.527.48 4.047.48 1.52 0 2.957-.17 4.047-.48.421-.12.775-.256 1.06-.408v1.11c-.64.315-1.439.57-2.33.743a.445.445 0 1 0 .171.873 10.912 10.912 0 0 0 2.16-.64v.728z"/><path d="M7.025 4.957a.05.05 0 0 0-.068.018v.001A.05.05 0 0 0 7 5.05a.05.05 0 0 0 .043-.025v-.001a.05.05 0 0 0-.018-.067zM19.05 21.995a.05.05 0 0 0-.054-.045h-.001a.05.05 0 0 0-.045.055.05.05 0 0 0 .054.045h.002a.05.05 0 0 0 .044-.055z"/></g></svg>
