<svg
        xmlns="http://www.w3.org/2000/svg"
        viewBox="0 0 33.023 33.023"
        fill="white"
        height="40"
        width="40"
>
    <path
            d="M10.033 33.023a.5.5 0 0 1-.47-.671l5.223-14.359-6.313-1.801a.5.5 0 0 1-.246-.803L21.032.177a.5.5 0 0 1 .863.461l-3.692 12.807 6.347 1.811a.498.498 0 0 1 .243.806l-14.38 16.787a.504.504 0 0 1-.38.174zm-.544-17.581l6.087 1.735a.498.498 0 0 1 .333.651l-4.466 12.278 12.083-14.105-6.079-1.733a.501.501 0 0 1-.344-.619l3.18-11.029L9.489 15.442z"
    />
</svg>
