<svg
        height="40"
        viewBox="-120 0 512 512"
        width="40"
        xmlns="http://www.w3.org/2000/svg"
        fill="white"
>
    <path
            d="M31.316 300.238c.086.094.137.219.223.305l.078.078.102.066c2.097 2.52 4.324 4.91 6.594 7.262.078.078.113.188.199.266.082.078.144.12.21.18a137.112 137.112 0 0 0 11.18 10.386l-14.918 142.02h-9.386c-9.426 0-17.067 7.64-17.067 17.066v25.598A8.534 8.534 0 0 0 17.066 512H256c4.71 0 8.531-3.82 8.531-8.535v-25.598c0-9.426-7.64-17.066-17.066-17.066h-9.387l-14.922-142.02a137.87 137.87 0 0 0 11.332-10.558c.137-.118.282-.239.383-.34l.086-.094c.074-.078.094-.18.16-.258 2.133-2.226 4.27-4.476 6.23-6.824l.122-.078.176-.188c.148-.152.242-.351.367-.504 39.043-47.382 41.488-115.046 5.976-165.128 11.586-4.336 18.403-16.356 16.172-28.528-2.226-12.168-12.855-20.996-25.226-20.949h-18.04c-5.23-25.402-33.28-45.66-69.18-50.2a25.248 25.248 0 0 0 1.884-9.53C153.598 11.46 142.137 0 128 0c-14.14 0-25.602 11.46-25.602 25.602a25.3 25.3 0 0 0 3.415 12.593c-28.262 7.68-49.231 25.532-53.676 47.137H34.133c-12.399-.086-23.07 8.742-25.309 20.934-2.238 12.195 4.602 24.238 16.219 28.562-35.594 50.215-33.02 118.074 6.273 165.453zm11.348-18.636a16.967 16.967 0 0 1 7.305-13.852 33.746 33.746 0 0 0 18.297 5.316c.793 0 1.535-.136 2.312-.195a36.606 36.606 0 0 0 3.176 6.824 33.753 33.753 0 0 0-12.8 18.887 17.595 17.595 0 0 1-10.7-2.824c-1.914-1.996-3.809-4.012-5.574-6.13a17.848 17.848 0 0 1-2.016-8.026zm76.8-59.735c0-9.426 7.641-17.066 17.067-17.066s17.067 7.64 17.067 17.066a15.7 15.7 0 0 1-.211 2.305 37.703 37.703 0 0 0-16.856 12.004 37.713 37.713 0 0 0-16.86-12.024 16.56 16.56 0 0 1-.206-2.285zm109.009 67.653c-1.762 2.105-3.645 4.105-5.54 6.082a17.584 17.584 0 0 1-10.804 2.945 33.764 33.764 0 0 0-12.8-18.875 36.36 36.36 0 0 0 3.167-6.828c.766.05 1.508.199 2.293.199a33.795 33.795 0 0 0 18.305-5.316 16.989 16.989 0 0 1 7.304 13.875c-.02 2.75-.68 5.46-1.925 7.918zM76.8 307.03c0-.293.074-.582.094-.855a16.7 16.7 0 0 1 8.949-13.774 37.41 37.41 0 0 0 9.386 4.387 40.815 40.815 0 0 0 2.125 26.93c-1.14.308-2.308.492-3.488.547-.57 0-1.14-.032-1.707-.094a121.777 121.777 0 0 1-9.867-4.512 16.873 16.873 0 0 1-5.492-12.629zm39.25 15.461a25.364 25.364 0 0 1-1.653-28.16 16.507 16.507 0 0 1 1.707-2.477 25.352 25.352 0 0 1 18.278-10.152c.742-.07 1.426-.137 2.176-.137s1.433.067 2.261.145a25.588 25.588 0 0 1 18.48 10.504c.52.676.985 1.394 1.395 2.14 7.203 11.754 3.79 27.098-7.715 34.692-11.507 7.59-26.957 4.691-34.93-6.555zm64.855 1.707c-.566.051-1.136.074-1.707.067a16.434 16.434 0 0 1-3.48-.57 40.846 40.846 0 0 0 2.133-26.907 37.458 37.458 0 0 0 9.386-4.402 16.687 16.687 0 0 1 8.942 13.765c0 .297 0 .758.07 1.047a16.607 16.607 0 0 1-5.523 12.45 118.203 118.203 0 0 1-9.82 4.523zm35.414-72.703a17.162 17.162 0 0 1-11.793 4.445 37.837 37.837 0 0 0-14.406-25.703 17.066 17.066 0 0 1 19.188-7.75 17.067 17.067 0 0 1 12.558 16.446 16.756 16.756 0 0 1-5.574 12.535zm-40.379-10.184a21.068 21.068 0 0 1 11.793 18.954v.468c-.199.711-.297 1.442-.3 2.176v.156a20.128 20.128 0 0 1-5.758 11.817 8.47 8.47 0 0 0-.856 1.015l-.445.387a20.457 20.457 0 0 1-10.16 4.93 42.236 42.236 0 0 0-24.32-15.36 21.29 21.29 0 0 1-.829-5.59 20.577 20.577 0 0 1 2.227-9.335 21.158 21.158 0 0 1 15.02-11.614 19.134 19.134 0 0 1 4.085-.382c3.32-.028 6.594.78 9.516 2.355zm-65.007-1.953a21.108 21.108 0 0 1 14.89 11.676 20.47 20.47 0 0 1 2.176 9.23 20.828 20.828 0 0 1-.855 5.567 41.787 41.787 0 0 0-24.395 15.36 21.776 21.776 0 0 1-10.367-5.122l-.094-.093c-.289-.43-.61-.832-.965-1.204a20.16 20.16 0 0 1-5.777-11.785v-.238a8.453 8.453 0 0 0-.195-1.469v-.21c-.02-.286-.02-.571 0-.856a21.511 21.511 0 0 1 25.597-20.906zm-42.36 16.532c-4.422.07-8.699-1.567-11.949-4.567a16.605 16.605 0 0 1-5.426-12.39 17.071 17.071 0 0 1 12.563-16.508 17.07 17.07 0 0 1 19.215 7.812 37.806 37.806 0 0 0-14.403 25.653zm178.89 239.043H25.599v-17.067h221.867zM153.599 460.8h-34.133v-42.668c0-9.426 7.64-17.067 17.066-17.067s17.067 7.641 17.067 17.067zm67.328 0h-50.262v-42.668c0-18.852-15.281-34.133-34.133-34.133s-34.133 15.281-34.133 34.133V460.8H52.137l13.758-130.852c2.558 1.563 5.117 3.09 7.832 4.488.359.208.734.387 1.117.54 3.695 1.875 7.46 3.601 11.332 5.12.234.126.472.239.719.34.203.067.418.137.64.188h.16a134.483 134.483 0 0 0 97.633 0h.067a8.451 8.451 0 0 0 2.78-1.031c3.415-1.403 6.727-2.989 9.993-4.653.266-.093.496-.254.762-.367 2.816-1.457 5.547-3.047 8.242-4.683zm22.691-194.824a34.169 34.169 0 0 0-8.953-10.942 33.806 33.806 0 0 0-29.863-50.234 34.294 34.294 0 0 0-29.98 18.031 36.078 36.078 0 0 0-4.18-.719v-.246c0-18.851-15.282-34.133-34.133-34.133-18.852 0-34.133 15.282-34.133 34.133v.36a40.61 40.61 0 0 0-4.105.765c-7.332-13.808-23.122-20.851-38.293-17.082-15.176 3.774-25.832 17.39-25.844 33.024a33.91 33.91 0 0 0 4.265 16.109 34.202 34.202 0 0 0-8.925 10.934C8.375 223.559 14.57 172.652 45.227 136.535H227.84c30.668 36.11 36.879 87.016 15.793 129.442zM128 17.067c4.71 0 8.531 3.82 8.531 8.535 0 4.71-3.82 8.53-8.531 8.53a8.533 8.533 0 1 1 0-17.066zm8.531 34.132c32.352 0 60.297 14.926 66.824 34.133H69.707c6.527-19.207 34.477-34.133 66.824-34.133zM34.133 102.4h204.8c4.712 0 8.532 3.82 8.532 8.535 0 4.71-3.82 8.53-8.531 8.53H34.133a8.533 8.533 0 1 1 0-17.066zm0 0"
    />
</svg>
