<svg
        height="40"
        viewBox="-12 0 512 512.003"
        width="40"
        xmlns="http://www.w3.org/2000/svg"
        fill="white"
>
    <path
            d="M483.602 367.895c-3.04-1.43-74.95-34.942-124.13-34.942-4.605 0-9.363.293-14.206.824 13.156-8.703 24.117-17.507 32.761-26.351 17.805-18.207 36.23-47.2 54.77-86.168 13.7-28.793 22.137-51.98 22.488-52.953a7.501 7.501 0 0 0-9.707-9.57c-.953.363-23.64 9-51.808 23.015-38.122 18.973-66.48 37.828-84.293 56.047-5.055 5.172-10.11 11.18-15.145 17.98 5.27-22.66 7.938-42.89 7.938-60.476 0-75.387-49.368-186.192-51.47-190.875C249.59 1.734 246.91 0 243.958 0s-5.633 1.734-6.84 4.43c-.281.617-27.957 62.593-42.492 124.668a7.499 7.499 0 0 0 5.594 9.011 7.502 7.502 0 0 0 9.011-5.593c9.782-41.77 25.688-83.578 34.723-105.743 13.727 33.692 43.313 112.79 43.313 168.532 0 55.715-29.645 129.976-43.313 161.246-13.664-31.254-43.308-105.488-43.308-161.246 0-9.586.89-20.438 2.648-32.242a7.5 7.5 0 0 0-6.313-8.524 7.498 7.498 0 0 0-8.523 6.316c-1.867 12.536-2.812 24.125-2.812 34.45 0 19.078 3.16 39.898 7.914 60.437-5.028-6.785-10.075-12.777-15.125-17.941-17.809-18.219-46.168-37.074-84.29-56.047-28.167-14.02-50.855-22.652-51.808-23.016a7.504 7.504 0 0 0-9.711 9.57c.352.973 8.793 24.16 22.492 52.954 18.54 38.968 36.965 67.96 54.766 86.168 8.644 8.84 19.601 17.644 32.758 26.351-4.84-.531-9.598-.824-14.2-.824-13.105 0-29.015 2.398-47.3 7.133a7.5 7.5 0 0 0-5.38 9.14c1.04 4.008 5.13 6.422 9.141 5.38 17.055-4.415 31.703-6.653 43.54-6.653 32.73 0 75.765 16.977 97.788 26.73-22.011 9.754-65.023 26.727-97.789 26.727-32.738 0-78.441-16.937-102.132-26.734 7.863-3.254 18.144-7.297 29.539-11.227a7.495 7.495 0 0 0 4.644-9.531c-1.347-3.918-5.617-5.996-9.535-4.649-26.008 8.97-45.812 18.235-46.645 18.625A7.494 7.494 0 0 0 0 374.688c0 2.906 1.68 5.55 4.313 6.785 3.039 1.43 74.949 34.941 124.128 34.941 10.153 0 21.047-1.426 31.97-3.703a96.252 96.252 0 0 0-1.79 1.777c-26.633 27.239-47.754 85.016-48.64 87.461-1 2.754-.301 5.84 1.785 7.895a7.491 7.491 0 0 0 7.925 1.672c2.391-.907 58.93-22.532 85.586-49.793 17.172-17.567 30.875-46.582 38.68-65.688 7.8 19.106 21.508 48.121 38.68 65.688 26.652 27.261 83.191 48.886 85.586 49.793a7.497 7.497 0 0 0 7.925-1.672 7.495 7.495 0 0 0 1.786-7.895c-.887-2.445-22.012-60.222-48.641-87.46a96.57 96.57 0 0 0-1.793-1.778c10.926 2.273 21.82 3.703 31.973 3.703 49.18 0 121.09-33.516 124.129-34.941a7.498 7.498 0 0 0 4.308-6.79 7.495 7.495 0 0 0-4.308-6.788zM320.203 248.28c29.613-30.285 86.813-57.047 114.668-68.957-11.598 28.41-37.848 87.219-67.57 117.617-16.176 16.543-42.676 33.871-76.637 50.098-.012.008-23.008 8.633-31.555 12.348a739.783 739.783 0 0 0 17.293-43.813c.121-.195.235-.398.336-.61 14.39-29.468 29.016-51.902 43.465-66.683zm-123.2 98.684c-.194-.121-60.355-33.625-76.39-50.024-29.722-30.398-55.972-89.207-67.57-117.617 27.86 11.91 85.059 38.672 114.668 68.957 14.527 14.86 29.219 37.446 43.672 67.117a727.686 727.686 0 0 0 17.387 43.973c-8.606-3.742-19.614-8.215-31.766-12.406zm-2.452 104.27c-16.02 16.386-45.473 31.16-63.875 39.394 8.035-18.813 22.543-49.156 38.672-65.656 8.41-8.606 21.113-17.364 37.75-26.032.265-.14 17.097-6.933 23.394-9.703-7.285 17.977-20.27 45.969-35.941 61.996zm124.015-26.262c16.114 16.48 30.633 46.84 38.668 65.66-18.394-8.23-47.828-22.992-63.87-39.399-15.669-16.027-28.657-44.02-35.938-61.992a462.109 462.109 0 0 0 22.152 9.059c17.242 8.875 30.36 17.847 38.988 26.672zm40.907-23.563c-32.73 0-75.766-16.976-97.79-26.73 22.012-9.754 65.024-26.73 97.79-26.73 32.734 0 78.43 16.937 102.12 26.734-23.683 9.796-69.359 26.726-102.12 26.726zm0 0"
            fill="#fff"
    />
</svg>
